<?xml version="1.0" encoding="UTF-8"?>
<svg version="1.1" xmlns="http://www.w3.org/2000/svg" width="32" height="32">
<path d="M0 0 C0.33 -0.33 0.66 -0.66 1 -1 C3.4375 -1.25 3.4375 -1.25 6 -1 C8.27126455 2.40689682 8.33472756 4.10263559 8.5625 8.125 C8.46334775 11.87914167 8.46334775 11.87914167 10 15 C10.37881436 18.40932922 10.36000519 20.37817286 8.625 23.375 C3.69387796 26.42759936 -1.90210633 25.46619859 -7.375 24.25 C-10.9855246 22.53070257 -13.19182018 20.94962967 -14.7578125 17.171875 C-16.14540175 12.56999672 -16.33412653 9.37648724 -14 5 C-9.67794279 0.32409016 -6.15897579 -1.6990278 0 0 Z " fill="#FECB59" transform="translate(19,4)"/>
<path d="M0 0 C1.2375 0.1546875 1.2375 0.1546875 2.5 0.3125 C4.77126455 3.71939682 4.83472756 5.41513559 5.0625 9.4375 C4.96334775 13.19164167 4.96334775 13.19164167 6.5 16.3125 C6.89588785 19.87549065 6.92667508 21.68889795 4.875 24.6875 C1.80628876 26.78714453 0.14607289 26.93310815 -3.5 26.3125 C-6.17535978 23.99385486 -6.47253 22.66274244 -6.75 19.125 C-6.5 16.3125 -6.5 16.3125 -5.5 15.3125 C-5.21461678 11.98302907 -5.05107367 8.65352372 -4.87890625 5.31640625 C-4.40684551 1.57398658 -3.81228404 0.4765355 0 0 Z " fill="#BFB2B4" transform="translate(22.5,2.6875)"/>
<path d="M0 0 C0.3690205 9.41002278 0.3690205 9.41002278 -2 14 C-4.375 13.6875 -4.375 13.6875 -7 13 C-9.32749345 9.50875983 -9.50299316 8.10777749 -9 4 C-6.36160394 0.28670185 -4.49495424 -0.49943936 0 0 Z " fill="#F19703" transform="translate(18,9)"/>
<path d="M0 0 C0.78375 0.04125 1.5675 0.0825 2.375 0.125 C2.705 0.785 3.035 1.445 3.375 2.125 C2.4375 4.75 2.4375 4.75 1.375 7.125 C0.055 7.125 -1.265 7.125 -2.625 7.125 C-2.60179687 7.69347656 -2.57859375 8.26195312 -2.5546875 8.84765625 C-2.43308312 14.05058648 -2.94776508 18.19812243 -4.625 23.125 C-5.285 22.795 -5.945 22.465 -6.625 22.125 C-6.66754356 20.12545254 -6.66580783 18.12458364 -6.625 16.125 C-6.295 15.795 -5.965 15.465 -5.625 15.125 C-5.33961678 11.79552907 -5.17607367 8.46602372 -5.00390625 5.12890625 C-4.52210707 1.3092818 -3.93790403 0.18751924 0 0 Z " fill="#D5D2CC" transform="translate(22.625,2.875)"/>
<path d="M0 0 C0.99 0 1.98 0 3 0 C3.22786458 2.05078125 3.45572917 4.1015625 3.68359375 6.15234375 C3.81886614 8.01140229 3.81886614 8.01140229 5 9 C5.125 11.5 5.125 11.5 5 14 C4 15 4 15 1.4375 15.0625 C0.633125 15.041875 -0.17125 15.02125 -1 15 C-1.38218767 13.34385343 -1.71395102 11.67542976 -2 10 C-1.67 9.67 -1.34 9.34 -1 9 C-0.76807135 7.48530552 -0.58784762 5.96245438 -0.4375 4.4375 C-0.35371094 3.61121094 -0.26992188 2.78492188 -0.18359375 1.93359375 C-0.12300781 1.29550781 -0.06242187 0.65742188 0 0 Z " fill="#E04D61" transform="translate(21,11)"/>
<path d="M0 0 C0.33 1.32 0.66 2.64 1 4 C-0.32 4.33 -1.64 4.66 -3 5 C-2.835 5.5775 -2.67 6.155 -2.5 6.75 C-1.74541638 10.14562628 -2 13.53066235 -2 17 C-1.01 17 -0.02 17 1 17 C1 18.32 1 19.64 1 21 C1.5775 20.814375 2.155 20.62875 2.75 20.4375 C5.20692525 19.95976454 6.64397534 20.24270636 9 21 C8.67 21.99 8.34 22.98 8 24 C-1.14634146 22.17073171 -1.14634146 22.17073171 -4 18 C-5.62580062 14.03711099 -6.18904292 10.9830232 -5.375 6.75 C-3.93746749 3.87493498 -2.41783116 2.09545367 0 0 Z " fill="#FED882" transform="translate(9,5)"/>
<path d="M0 0 C0.66 0 1.32 0 2 0 C2.226875 0.94875 2.45375 1.8975 2.6875 2.875 C3.66336372 6.20295295 3.66336372 6.20295295 6.5625 7.125 C7.366875 7.41375 8.17125 7.7025 9 8 C9.8125 10.125 9.8125 10.125 10 12 C7.69 11.67 5.38 11.34 3 11 C3 9.68 3 8.36 3 7 C2.01 7 1.02 7 0 7 C-0.38133299 5.0085944 -0.71325582 3.00720923 -1 1 C-0.67 0.67 -0.34 0.34 0 0 Z " fill="#FDC64E" transform="translate(7,15)"/>
<path d="M0 0 C0.66 1.32 1.32 2.64 2 4 C5.62885324 4.15149298 5.62885324 4.15149298 9 3 C8.34 4.65 7.68 6.3 7 8 C5.00045254 8.04254356 2.99958364 8.04080783 1 8 C0 7 0 7 -0.0625 3.4375 C-0.041875 2.303125 -0.02125 1.16875 0 0 Z " fill="#C6BFC1" transform="translate(18,21)"/>
<path d="M0 0 C-0.99 0.66 -1.98 1.32 -3 2 C-5.71313291 4.46648446 -7.55203712 6.62141995 -9 10 C-9.32523926 6.42236811 -9.42956587 4.60457419 -7.3125 1.625 C-4.61209763 -0.27258004 -3.22939919 -0.35882213 0 0 Z " fill="#DE8C06" transform="translate(18,9)"/>
</svg>
